# xmcd
#
# Track frame offsets:
#	150
#	17109
#	36905
#	52985
#	74049
#	86422
#	103354
#	120464
#	133810
#	151349
#	173708
#	187115
#	202805
#	224447
#	245003
#	263488
#	282109
#	294977
#
# Disc length: 4141 seconds
#
# Revision: 2
# Processed by: cddbd v1.5.1PL2 Copyright (c) Steve Scherf et al.
# Submitted via: EasyCDDAExtractor 9.0.0.1
#
DISCID=0c102b12
DTITLE=Paul Weller - Days of Speed
DYEAR=2001
DGENRE=Country
TTITLE0=Brand New Start
TTITLE1=The Loved
TTITLE2=Out of the Sinking
TTITLE3=Clues
TTITLE4=English Rose
TTITLE5=Above the Clouds
TTITLE6=You Do Something to Me
TTITLE7=Amongst Butterflies
TTITLE8=Science
TTITLE9=Back in the Fire
TTITLE10=Down in the Seine
TTITLE11=That's Entertainment
TTITLE12=Love-less
TTITLE13=There's No Drinking after You're Dead
TTITLE14=Everything Has a Price to Pay
TTITLE15=Wild Wood
TTITLE16=Headstart for Happiness
TTITLE17=Town Called Malice
EXTD=
EXTT0=
EXTT1=
EXTT2=
EXTT3=
EXTT4=
EXTT5=
EXTT6=
EXTT7=
EXTT8=
EXTT9=
EXTT10=
EXTT11=
EXTT12=
EXTT13=
EXTT14=
EXTT15=
EXTT16=
EXTT17=
PLAYORDER=
